<svg width="839" height="202" viewBox="0 0 839 202" fill="none" xmlns="http://www.w3.org/2000/svg">
<path d="M129.352 202L90.472 145.84H88.168H47.56V202H0.904001V0.399986H88.168C106.024 0.399986 121.48 3.37599 134.536 9.32799C147.784 15.28 157.96 23.728 165.064 34.672C172.168 45.616 175.72 58.576 175.72 73.552C175.72 88.528 172.072 101.488 164.776 112.432C157.672 123.184 147.496 131.44 134.248 137.2L179.464 202H129.352ZM128.488 73.552C128.488 62.224 124.84 53.584 117.544 47.632C110.248 41.488 99.592 38.416 85.576 38.416H47.56V108.688H85.576C99.592 108.688 110.248 105.616 117.544 99.472C124.84 93.328 128.488 84.688 128.488 73.552ZM368.781 164.56V202H212.685V0.399986H365.037V37.84H259.053V81.616H352.653V117.904H259.053V164.56H368.781ZM590.8 0.399986V202H552.496L451.984 79.6V202H405.904V0.399986H444.496L544.72 122.8V0.399986H590.8ZM771.266 158.8H677.666L659.81 202H612.002L701.858 0.399986H747.938L838.082 202H789.122L771.266 158.8ZM756.578 123.376L724.61 46.192L692.642 123.376H756.578Z" fill="white" fill-opacity="0.1"/>
</svg>
